@startuml

skinparam monochrome true
skinparam StateFontName Helvetica
skinparam defaultFontName Monospaced
skinparam defaultFontStyle Bold
skinparam state {
    FontColor Black
    FontStyle Bold
}


[*] --> STATE1
STATE1 ---> STATE2 : EVENT1\n{ action1() }
STATE2 ---> STATE1 : EVENT2\n{ action2() }
STATE1 ---> STATE1 : EVENT2\n{ action3() }
STATE2 ---> STATE2 : EVENT1\n{ action4() }

@enduml
