@startuml

skinparam monochrome true
skinparam StateFontName Helvetica
skinparam defaultFontName Monospaced
skinparam defaultFontStyle Bold
skinparam state {
    FontColor Black
    FontStyle Bold
}

[*] --left-> CLOSED

CLOSED ---> OPENED : SWITCH\n{ openLid() }
OPENED ---> CLOSED : <<automatic>>\n{ flipSwitch() }

@enduml
