@startuml
skinparam monochrome true
skinparam StateFontName Helvetica
skinparam defaultFontName Monospaced
skinparam defaultFontStyle Bold
skinparam state {
    FontStyle Bold
}
state SecureTurnstileFSM {
[*] --> LOCKED
LOCKED --> LOCKED : CARD
LOCKED --> LOCKED : CARD
LOCKED --> UNLOCKED : CARD
LOCKED --> LOCKED : CARD
UNLOCKED --> LOCKED : CARD
UNLOCKED --> LOCKED : PASS
}
@enduml
