@startuml
skinparam monochrome true
skinparam StateFontName Helvetica
skinparam defaultFontName Monospaced
skinparam defaultFontStyle Bold
skinparam state {
    FontStyle Bold
}
state TurnstileFSM {
[*] --> LOCKED
LOCKED --> UNLOCKED : COIN
UNLOCKED --> UNLOCKED : COIN
UNLOCKED --> LOCKED : PASS
}
@enduml
