@startuml
skinparam monochrome true
skinparam StateFontName Helvetica
skinparam defaultFontName Monospaced
skinparam defaultFontStyle Bold
skinparam state {
    FontStyle Bold
}
state TurnstileFSM {
[*] --> UNLOCKED
LOCKED --> UNLOCKED : COIN -> {\l  unlock()\l}
UNLOCKED --> UNLOCKED : COIN -> {\l  returnCoin()\l}
UNLOCKED --> LOCKED : PASS -> {\l  lock()\l}
}
@enduml
